# xmcd
#
# Track frame offsets:
#	150
#	35013
#	58333
#	79483
#	91097
#	125110
#	147408
#	173287
#	190535
#	204766
#	221677
#	246325
#
# Disc length: 3787 seconds
#
# Revision: 1
# Processed by: cddbd v1.5PL3 Copyright (c) Steve Scherf et al.
# Submitted via: CDex 1.50Beta5
#
DISCID=ab0ec90c
DTITLE=Various Artist - Sputnik:Travelling without moving
DYEAR=1900
DGENRE=
TTITLE0=Thievery Corporation/2001:Spliff Odyssey
TTITLE1=Pepe California/MELI-FALI
TTITLE2=Matt Harding/After Touch
TTITLE3=Tommy Guererro/Four TRK Samaba
TTITLE4=Nobukazu Takemura/For Tomorrow(Out of Phase Mix)
TTITLE5=DJ Food/Consciousness
TTITLE6=A Man Called Adam/Steady(Jose Ignacio Mix)
TTITLE7=Suns of Arqa/Albatross
TTITLE8=Folke Jensen/Viele Schone Jahre
TTITLE9=Mighty Math/Quark Sparking
TTITLE10=Zero7/Salt Walter Sound
TTITLE11=Solar Quest/Save the Whale
EXTD=
EXTT0=
EXTT1=
EXTT2=
EXTT3=
EXTT4=
EXTT5=
EXTT6=
EXTT7=
EXTT8=
EXTT9=
EXTT10=
EXTT11=
PLAYORDER=
